# xmcd CD database file
#
# Track frame offsets:
#	150
#	26345
#	52177
#
# Disc length: 1042 seconds
#
# Revision: 0
# Processed by: cddbd v1.5.1PL2 Copyright (c) Steve Scherf et al.
# Submitted via: CDex 1.51
#
DISCID=1f041003
DTITLE=徳永英明 - オリオンの炎
DYEAR=2000
DGENRE=JPop
TTITLE0=オリオンの炎
TTITLE1=Live On
TTITLE2=オリオンの炎(No Vocal Track)
EXTD=YEAR: 2000
EXTT0=
EXTT1=
EXTT2=
PLAYORDER=
